<svg width="11" height="11" viewBox="0 0 11 11" fill="none" xmlns="http://www.w3.org/2000/svg">
<path d="M9.89597 6.85515L5.92649 10.8246C5.81327 10.9378 5.66222 11 5.49793 11C5.33687 11 5.18591 10.9378 5.07269 10.8246L1.10311 6.85515C0.868624 6.62057 0.868624 6.23879 1.10311 6.00439L1.46352 5.64381C1.57674 5.53067 1.72779 5.46843 1.88894 5.46843C2.05001 5.46843 2.20624 5.53067 2.31937 5.64381L4.64029 7.95971V0.602139C4.64029 0.270529 4.9 0 5.23161 0H5.74136C6.07297 0 6.35897 0.270529 6.35897 0.602139V7.98582L8.69304 5.64381C8.80617 5.53067 8.95319 5.46843 9.11435 5.46843C9.2755 5.46843 9.42431 5.53067 9.53762 5.64381L9.89696 6.00439C10.1315 6.23888 10.1306 6.62057 9.89597 6.85515Z" fill="#FF9547"/>
</svg>
