<svg width="16" height="13" viewBox="0 0 16 13" fill="none" xmlns="http://www.w3.org/2000/svg">
	<path d="M6.4257 12.5263L0.881658 6.98226C0.723528 6.82413 0.636719 6.61317 0.636719 6.38371C0.636719 6.15876 0.723528 5.94792 0.881658 5.78979L6.4257 0.245626C6.75332 -0.0818756 7.28654 -0.0818756 7.61392 0.245626L8.11754 0.748993C8.27554 0.907123 8.36248 1.11809 8.36248 1.34317C8.36248 1.56812 8.27554 1.78633 8.11754 1.94434L4.88299 5.18587L15.1591 5.18587C15.6222 5.18587 16 5.5486 16 6.01175L16 6.72371C16 7.18685 15.6222 7.5863 15.1591 7.5863L4.84652 7.5863L8.11754 10.8462C8.27554 11.0042 8.36248 11.2096 8.36248 11.4346C8.36248 11.6597 8.27554 11.8676 8.11754 12.0258L7.61392 12.5277C7.28642 12.8553 6.75332 12.8541 6.4257 12.5263Z" fill="#1465DF"/>
</svg>
