<svg width="16" height="13" viewBox="0 0 16 13" fill="none" xmlns="http://www.w3.org/2000/svg">
<path d="M9.5743 12.5263L15.1183 6.98226C15.2765 6.82413 15.3633 6.61317 15.3633 6.38371C15.3633 6.15876 15.2765 5.94792 15.1183 5.78979L9.5743 0.245626C9.24668 -0.0818756 8.71346 -0.0818756 8.38608 0.245626L7.88246 0.748993C7.72446 0.907123 7.63752 1.11809 7.63752 1.34317C7.63752 1.56812 7.72446 1.78633 7.88246 1.94434L11.117 5.18587L0.840936 5.18587C0.377788 5.18587 -4.98336e-05 5.5486 -4.98538e-05 6.01175L-4.9885e-05 6.72371C-4.99052e-05 7.18685 0.377788 7.5863 0.840936 7.5863L11.1535 7.5863L7.88246 10.8462C7.72446 11.0042 7.63752 11.2096 7.63752 11.4346C7.63752 11.6597 7.72446 11.8676 7.88246 12.0258L8.38608 12.5277C8.71358 12.8553 9.24668 12.8541 9.5743 12.5263Z" fill="#3077E3"/>
</svg>
