<svg width="11" height="11" viewBox="0 0 11 11" fill="none" xmlns="http://www.w3.org/2000/svg">
<path d="M9.89597 4.14485L5.92649 0.175374C5.81327 0.0621545 5.66222 0 5.49793 0C5.33687 0 5.18591 0.0621545 5.07269 0.175374L1.10311 4.14485C0.868624 4.37943 0.868624 4.76121 1.10311 4.99561L1.46352 5.35619C1.57674 5.46933 1.72779 5.53157 1.88894 5.53157C2.05001 5.53157 2.20624 5.46933 2.31937 5.35619L4.64029 3.04029V10.3979C4.64029 10.7295 4.9 11 5.23161 11H5.74136C6.07297 11 6.35897 10.7295 6.35897 10.3979V3.01418L8.69304 5.35619C8.80617 5.46933 8.95319 5.53157 9.11435 5.53157C9.2755 5.53157 9.42431 5.46933 9.53762 5.35619L9.89696 4.99561C10.1315 4.76112 10.1306 4.37943 9.89597 4.14485Z" fill="#4AFF93"/>
</svg>
