<svg width="8" height="8" viewBox="0 0 8 8" fill="none" xmlns="http://www.w3.org/2000/svg">
<g clip-path="url(#clip0)">
<path d="M4.73293 4.00656L7.84798 0.891419C8.0507 0.688793 8.0507 0.361173 7.84798 0.158547C7.64535 -0.0440801 7.31773 -0.0440801 7.1151 0.158547L3.99996 3.27368L0.884916 0.158547C0.682194 -0.0440801 0.354669 -0.0440801 0.152041 0.158547C-0.0506805 0.361173 -0.0506805 0.688793 0.152041 0.891419L3.26709 4.00656L0.152041 7.12169C-0.0506805 7.32432 -0.0506805 7.65194 0.152041 7.85456C0.253023 7.95564 0.385798 8.00642 0.518479 8.00642C0.651159 8.00642 0.783839 7.95564 0.884916 7.85456L3.99996 4.73943L7.1151 7.85456C7.21618 7.95564 7.34886 8.00642 7.48154 8.00642C7.61422 8.00642 7.7469 7.95564 7.84798 7.85456C8.0507 7.65194 8.0507 7.32432 7.84798 7.12169L4.73293 4.00656Z" fill="#3077E3"/>
</g>
<defs>
<clipPath id="clip0">
<rect width="8" height="8" fill="white"/>
</clipPath>
</defs>
</svg>
