<svg width="14" height="14" viewBox="0 0 14 14" fill="none" xmlns="http://www.w3.org/2000/svg">
<path d="M13.7762 3.55685L13.3176 3.09507C13.1733 2.95086 12.9813 2.87141 12.7761 2.87141C12.571 2.87141 12.3787 2.95086 12.2344 3.09507L7.00313 8.32656L1.76584 3.08927C1.62174 2.94506 1.42949 2.86572 1.22438 2.86572C1.01928 2.86572 0.826917 2.94506 0.682705 3.08927L0.224002 3.5482C-0.0746673 3.84664 -0.0746673 4.33278 0.224002 4.63122L6.45963 10.8893C6.60373 11.0334 6.79575 11.1349 7.00267 11.1349H7.00506C7.21029 11.1349 7.4023 11.0333 7.5464 10.8893L13.7762 4.64818C13.9206 4.50408 13.9998 4.30625 14 4.10115C14 3.89593 13.9206 3.70084 13.7762 3.55685Z" fill="#77A3E6"/>
</svg>
