<svg width="20" height="20" viewBox="0 0 20 20" fill="none" xmlns="http://www.w3.org/2000/svg">
<g opacity="0.3">
<g clip-path="url(#clip0)">
<path d="M19.8507 9.60918C19.6722 9.41004 15.3782 4.72656 10 4.72656C4.62182 4.72656 0.32791 9.41004 0.149355 9.60918C-0.0497852 9.83176 -0.0497852 10.1682 0.149355 10.3908C0.32791 10.59 4.62189 15.2734 10 15.2734C15.3781 15.2734 19.6721 10.59 19.8507 10.3908C20.0498 10.1682 20.0498 9.83176 19.8507 9.60918ZM10 14.1016C7.73865 14.1016 5.89846 12.2614 5.89846 10C5.89846 7.73863 7.73865 5.89844 10 5.89844C12.2614 5.89844 14.1016 7.73863 14.1016 10C14.1016 12.2614 12.2614 14.1016 10 14.1016Z" fill="#77A3E6"/>
<path d="M10.5859 8.82812C10.5859 8.23867 10.8786 7.72012 11.3237 7.40117C10.9243 7.19668 10.4787 7.07031 10 7.07031C8.38465 7.07031 7.07031 8.38465 7.07031 10C7.07031 11.6154 8.38465 12.9297 10 12.9297C11.4462 12.9297 12.6433 11.8737 12.8798 10.4938C11.6998 10.8737 10.5859 9.98133 10.5859 8.82812Z" fill="#77A3E6"/>
</g>
</g>
<defs>
<clipPath id="clip0">
<rect width="20" height="20" fill="white"/>
</clipPath>
</defs>
</svg>
