<svg width="16" height="16" viewBox="0 0 16 16" fill="none" xmlns="http://www.w3.org/2000/svg">
<path d="M7.9996 0C4.75189 0 2.10938 2.64251 2.10938 5.89056C2.10938 6.73777 2.28278 7.54667 2.62452 8.29499C4.09724 11.5176 6.92085 14.9201 7.75137 15.886C7.81359 15.9582 7.90431 15.9998 7.99977 15.9998C8.09523 15.9998 8.18595 15.9582 8.24817 15.886C9.07836 14.9203 11.902 11.518 13.3752 8.29499C13.7171 7.54667 13.8903 6.73777 13.8903 5.89056C13.89 2.64251 11.2475 0 7.9996 0ZM7.9996 8.95013C6.31254 8.95013 4.93987 7.57746 4.93987 5.89039C4.93987 4.20317 6.31254 2.83049 7.9996 2.83049C9.68667 2.83049 11.0593 4.20317 11.0593 5.89039C11.0595 7.57746 9.68683 8.95013 7.9996 8.95013Z" fill="white"/>
</svg>
