<svg width="25" height="25" viewBox="0 0 25 25" fill="none" xmlns="http://www.w3.org/2000/svg">
<g clip-path="url(#clip0)">
<path d="M0.440622 10.2873L23.9757 0.0607118C24.2516 -0.0591611 24.5727 0.00187397 24.7855 0.214569C24.9982 0.427313 25.0592 0.748503 24.9393 1.02438L14.7128 24.5595C14.5961 24.828 14.3314 25 14.0412 25C14.0274 25 14.0135 24.9996 13.9997 24.9988C13.6934 24.9815 13.4304 24.7752 13.3407 24.4818L11.1477 17.3116C10.6404 15.6529 9.34725 14.3597 7.68851 13.8524L0.518309 11.6594C0.224998 11.5697 0.0186005 11.3066 0.00126648 11.0004C-0.0160675 10.6941 0.159275 10.4095 0.440622 10.2873Z" fill="white"/>
</g>
<defs>
<clipPath id="clip0">
<rect width="25" height="25" fill="white" transform="matrix(-1 0 0 1 25 0)"/>
</clipPath>
</defs>
</svg>
