<svg width="16" height="16" viewBox="0 0 16 16" fill="none" xmlns="http://www.w3.org/2000/svg">
<g clip-path="url(#clip0)">
<path d="M15.5648 11.7424L13.332 9.50954C12.5345 8.71209 11.1789 9.0311 10.8599 10.0678C10.6207 10.7855 9.8232 11.1842 9.1055 11.0247C7.51061 10.626 5.35751 8.5526 4.95879 6.87797C4.71955 6.16024 5.19802 5.36279 5.91572 5.12359C6.9524 4.80461 7.27138 3.44895 6.47393 2.65151L4.24109 0.418659C3.60313 -0.139553 2.64619 -0.139553 2.08798 0.418659L0.572835 1.93381C-0.942311 3.5287 0.732325 7.75516 4.48032 11.5032C8.22831 15.2511 12.4548 17.0056 14.0497 15.4106L15.5648 13.8955C16.1231 13.2575 16.1231 12.3006 15.5648 11.7424Z" fill="white"/>
</g>
<defs>
<clipPath id="clip0">
<rect width="16" height="16" fill="white"/>
</clipPath>
</defs>
</svg>
