<svg width="16" height="16" viewBox="0 0 16 16" fill="none" xmlns="http://www.w3.org/2000/svg">
<g clip-path="url(#clip0)">
<path d="M11.0713 9.49438C12.9919 6.78229 12.3496 3.02684 9.63747 1.10667C6.92537 -0.813502 3.16992 -0.17161 1.24975 2.54094C-0.67042 5.25304 -0.0285284 9.00803 2.68403 10.9282C4.61979 12.2987 7.1791 12.4042 9.22086 11.1984L13.6572 15.6082C14.1362 16.1124 14.9332 16.1326 15.4374 15.6536C15.9417 15.1751 15.9619 14.3781 15.4833 13.8738C15.4682 13.8578 15.4535 13.8431 15.4374 13.828L11.0713 9.49438ZM6.15685 9.90549C4.01369 9.90595 2.27613 8.16977 2.27476 6.02661C2.2743 3.88346 4.01048 2.1459 6.15409 2.14498C8.2945 2.14406 10.0311 3.87749 10.0353 6.01789C10.0389 8.16151 8.30367 9.90182 6.1596 9.90549C6.15868 9.90549 6.15822 9.90549 6.15685 9.90549Z" fill="white"/>
</g>
<defs>
<clipPath id="clip0">
<rect width="16" height="16" fill="white"/>
</clipPath>
</defs>
</svg>
