<svg width="16" height="16" viewBox="0 0 16 16" fill="none" xmlns="http://www.w3.org/2000/svg">
<g clip-path="url(#clip0)">
<path d="M15.4485 14.6189H7.72757C7.42316 14.6189 7.17607 14.8649 7.17607 15.1699C7.17607 15.4748 7.42316 15.7219 7.72757 15.7219H15.4485C15.753 15.7219 16 15.4748 16 15.1699C16 14.8649 15.7535 14.6189 15.4485 14.6189ZM8.65793 5.62789C8.87414 5.41058 8.87414 5.05874 8.65793 4.84198L4.82946 0.436101C4.71419 0.320284 4.56088 0.271186 4.41032 0.278924C4.25921 0.271186 4.10645 0.320284 3.99118 0.436101L0.162137 4.84146C-0.0540458 5.05877 -0.0540458 5.41061 0.162137 5.62734C0.378346 5.84407 0.729092 5.84465 0.945275 5.62734L3.86765 2.26486V15.7214H4.97063V2.28525L7.87534 5.62787C8.09097 5.84462 8.44172 5.84462 8.65793 5.62789ZM8.83056 2.48601H15.4485C15.753 2.48601 16 2.22405 16 1.91905C16 1.61409 15.753 1.36703 15.4485 1.36703H8.83056C8.52611 1.36703 8.27905 1.61409 8.27905 1.91905C8.27905 2.22405 8.52611 2.48601 8.83056 2.48601ZM15.4485 11.305H7.72757C7.42316 11.305 7.17607 11.552 7.17607 11.857C7.17607 12.162 7.42316 12.4091 7.72757 12.4091H15.4485C15.753 12.4091 16 12.162 16 11.857C16 11.552 15.7535 11.305 15.4485 11.305ZM15.4485 7.99213H7.72757C7.42316 7.99213 7.17607 8.23921 7.17607 8.54418C7.17607 8.84917 7.42316 9.09623 7.72757 9.09623H15.4485C15.753 9.09623 16 8.84917 16 8.54418C16 8.23921 15.7535 7.99213 15.4485 7.99213ZM15.4485 4.67929L11.0365 4.69142C10.7321 4.69142 10.485 4.92635 10.485 5.23134C10.485 5.53631 10.7321 5.7944 11.0365 5.7944L15.4485 5.78337C15.7529 5.78337 16 5.53631 16 5.23134C16 4.92638 15.7535 4.67929 15.4485 4.67929Z" fill="#3077E3"/>
</g>
<defs>
<clipPath id="clip0">
<rect width="16" height="16" fill="white"/>
</clipPath>
</defs>
</svg>
