<svg width="68" height="68" viewBox="0 0 68 68" fill="none" xmlns="http://www.w3.org/2000/svg">
<circle r="34" transform="matrix(-1 0 0 1 34 34)" fill="white"/>
<path d="M33.4994 21C28.4248 21 24.2959 25.1289 24.2959 30.204C24.2959 31.5278 24.5668 32.7917 25.1008 33.9609C27.4019 38.9963 31.8138 44.3127 33.1115 45.8219C33.2087 45.9348 33.3505 45.9997 33.4996 45.9997C33.6488 45.9997 33.7905 45.9348 33.8878 45.8219C35.1849 44.3129 39.5968 38.9968 41.8987 33.9609C42.4329 32.7917 42.7036 31.5278 42.7036 30.204C42.7031 25.1289 38.5742 21 33.4994 21ZM33.4994 34.9846C30.8633 34.9846 28.7185 32.8398 28.7185 30.2037C28.7185 27.5674 30.8633 25.4226 33.4994 25.4226C36.1354 25.4226 38.2802 27.5674 38.2802 30.2037C38.2805 32.8398 36.1357 34.9846 33.4994 34.9846Z" fill="#3077E3"/>
</svg>
