<svg width="68" height="68" viewBox="0 0 68 68" fill="none" xmlns="http://www.w3.org/2000/svg">
<circle r="34" transform="matrix(-1 0 0 1 34 34)" fill="white"/>
<g clip-path="url(#clip0)">
<path d="M46.3197 40.3475L42.8309 36.8587C41.5849 35.6126 39.4666 36.1111 38.9682 37.7309C38.5944 38.8523 37.3484 39.4753 36.227 39.2261C33.735 38.6031 30.3708 35.3634 29.7478 32.7468C29.374 31.6254 30.1216 30.3794 31.243 30.0056C32.8628 29.5072 33.3612 27.389 32.1152 26.143L28.6264 22.6542C27.6296 21.7819 26.1343 21.7819 25.2621 22.6542L22.8947 25.0216C20.5273 27.5136 23.1439 34.1174 29.0002 39.9737C34.8564 45.8299 41.4603 48.5712 43.9523 46.0791L46.3197 43.7117C47.1919 42.7149 47.1919 41.2197 46.3197 40.3475Z" fill="#3077E3"/>
</g>
<defs>
<clipPath id="clip0">
<rect x="22" y="22" width="25" height="25" fill="white"/>
</clipPath>
</defs>
</svg>
