<svg width="68" height="68" viewBox="0 0 68 68" fill="none" xmlns="http://www.w3.org/2000/svg">
<circle r="34" transform="matrix(-1 0 0 1 34 34)" fill="#4B729F"/>
<g clip-path="url(#clip0)">
<path d="M42.7448 35.571C42.3406 35.0606 42.4562 34.8335 42.7448 34.3772C42.75 34.372 46.0865 29.7616 46.4302 28.1981L46.4323 28.197C46.6031 27.6272 46.4323 27.2085 45.6062 27.2085H42.8729C42.1771 27.2085 41.8562 27.5679 41.6844 27.97C41.6844 27.97 40.2927 31.3012 38.324 33.4606C37.6885 34.0845 37.3948 34.2845 37.0479 34.2845C36.8771 34.2845 36.6115 34.0845 36.6115 33.5147V28.197C36.6115 27.5137 36.4167 27.2085 35.8406 27.2085H31.5427C31.1062 27.2085 30.8469 27.5272 30.8469 27.8241C30.8469 28.472 31.8313 28.621 31.9333 30.4439V34.3991C31.9333 35.2658 31.776 35.4252 31.4271 35.4252C30.4979 35.4252 28.2427 32.0804 26.9062 28.2522C26.6365 27.5095 26.3729 27.2095 25.6719 27.2095H22.9375C22.1573 27.2095 22 27.5689 22 27.971C22 28.6814 22.9292 32.2137 26.3208 36.8804C28.5812 40.0658 31.7646 41.7918 34.6604 41.7918C36.401 41.7918 36.6135 41.4085 36.6135 40.7491C36.6135 37.7054 36.4562 37.4179 37.3281 37.4179C37.7323 37.4179 38.4281 37.6179 40.0531 39.1543C41.9104 40.9762 42.2156 41.7918 43.2552 41.7918H45.9885C46.7677 41.7918 47.1625 41.4085 46.9354 40.6522C46.4156 39.0616 42.9031 35.7897 42.7448 35.571Z" fill="white"/>
</g>
<defs>
<clipPath id="clip0">
<rect x="22" y="22" width="25" height="25" fill="white"/>
</clipPath>
</defs>
</svg>
