<svg width="60" height="61" viewBox="0 0 60 61" fill="none" xmlns="http://www.w3.org/2000/svg">
<g clip-path="url(#clip0)">
<path d="M12.9999 30.2189C12.9999 29.6653 12.5519 29.2161 11.9999 29.2161H9.00191C8.44996 29.2161 8.00195 29.6653 8.00195 30.2189C8.00195 30.7724 8.44996 31.2216 9.00191 31.2216H11.9999C12.5519 31.2216 12.9999 30.7733 12.9999 30.2189Z" fill="#3077E3"/>
<path d="M11.6791 41.7422C11.8491 41.7422 12.021 41.6991 12.178 41.6079L13.043 41.1064C13.521 40.8297 13.685 40.2159 13.409 39.7365C13.132 39.2562 12.5209 39.0907 12.042 39.3695L11.177 39.871C10.699 40.1488 10.536 40.7615 10.812 41.2418C10.997 41.5628 11.333 41.7422 11.6791 41.7422Z" fill="#3077E3"/>
<path d="M13.1262 19.0624L12.2602 18.5609C11.7802 18.2842 11.1702 18.4486 10.8943 18.9279C10.6183 19.4082 10.7822 20.021 11.2602 20.2977L12.1263 20.7992C12.2842 20.8905 12.4563 20.9335 12.6252 20.9335C12.9713 20.9335 13.3073 20.754 13.4922 20.432C13.7682 19.9529 13.6041 19.3391 13.1262 19.0624Z" fill="#3077E3"/>
<path d="M15 58.2968H0.999961C0.448008 58.2968 0 58.746 0 59.2995C0 59.853 0.448008 60.3024 0.999961 60.3024H15C15.552 60.3024 16 59.8532 16 59.2997C16 58.7461 15.552 58.2968 15 58.2968Z" fill="#3077E3"/>
<path d="M15 54.2855H0.999961C0.448008 54.2855 0 54.7348 0 55.2883C0 55.8418 0.448008 56.2911 0.999961 56.2911H15C15.552 56.2911 16 55.8418 16 55.2883C16 54.7348 15.552 54.2855 15 54.2855Z" fill="#3077E3"/>
<path d="M4.10602 44.3275C4.25801 44.3275 4.41199 44.2934 4.55707 44.2202C5.05008 43.9695 5.24707 43.3668 4.99805 42.8724C3.00902 38.9283 2.00004 34.6703 2.00004 30.2178C2.00004 14.7352 14.561 2.13874 30 2.13874C45.439 2.13874 58 14.7352 58 30.2699C58 31.4061 58 33.1229 57.717 34.2701C57.5839 34.8077 57.9109 35.3512 58.4469 35.4846C58.9819 35.618 59.5249 35.2901 59.6579 34.7515C60 33.3676 60 31.5034 60 30.2178C60 13.6291 46.542 0.133057 30 0.133057C13.458 0.133057 0 13.6291 0 30.2178C0 34.9872 1.08105 39.55 3.21305 43.7769C3.38895 44.1269 3.74098 44.3275 4.10602 44.3275Z" fill="#3077E3"/>
<path d="M54.7361 32.5353C55.2821 32.6406 55.802 32.2796 55.9041 31.7361C56.0321 31.0602 56.0011 30.292 56.0001 30.2179C56.0001 15.8414 44.3361 4.14441 30 4.14441C15.664 4.14441 4 15.8412 4 30.2177C4 35.0333 5.32 39.7375 7.81598 43.822C8.005 44.1319 8.33301 44.3014 8.66992 44.3014C8.84793 44.3014 9.02793 44.2542 9.19094 44.1529C9.66297 43.8641 9.80992 43.2464 9.52094 42.7741C7.21809 39.0055 6.00004 34.6632 6.00004 30.2177C6.00004 16.9464 16.7661 6.14998 30 6.14998C43.234 6.14998 54 16.9464 54.0011 30.1716C53.9991 30.2076 53.9981 30.2618 54.0002 30.2989C54.0072 30.4544 54.0112 30.9838 53.9391 31.363C53.8361 31.9075 54.1931 32.432 54.7361 32.5353Z" fill="#3077E3"/>
<path d="M47.822 18.8277L46.957 19.3291C46.479 19.6059 46.3151 20.2197 46.591 20.6989C46.7761 21.0208 47.1121 21.2004 47.458 21.2004C47.628 21.2004 47.8 21.1572 47.958 21.066L48.823 20.5646C49.301 20.2868 49.464 19.674 49.188 19.1937C48.9119 18.7144 48.2989 18.5489 47.822 18.8277Z" fill="#3077E3"/>
<path d="M19.0071 10.9756C18.5291 11.2524 18.3661 11.8662 18.6421 12.3455L19.1421 13.2129C19.3271 13.5348 19.6631 13.7144 20.0091 13.7144C20.1791 13.7144 20.351 13.6713 20.508 13.5801C20.9861 13.3023 21.15 12.6895 20.874 12.2092L20.374 11.3418C20.0971 10.8623 19.4851 10.6979 19.0071 10.9756Z" fill="#3077E3"/>
<path d="M39.8919 11.4248L39.3918 12.2933C39.1159 12.7727 39.2798 13.3863 39.7578 13.6631C39.9158 13.7544 40.0868 13.7974 40.2568 13.7974C40.6028 13.7974 40.9378 13.618 41.1237 13.296L41.6238 12.4275C41.8998 11.9472 41.7358 11.3345 41.2578 11.0577C40.7769 10.78 40.1668 10.9445 39.8919 11.4248Z" fill="#3077E3"/>
<path d="M35 58.2968H23C22.448 58.2968 22 58.746 22 59.2995C22 59.853 22.448 60.3023 23 60.3023H35C35.5519 60.3023 35.9999 59.853 35.9999 59.2995C35.9999 58.746 35.5519 58.2968 35 58.2968Z" fill="#3077E3"/>
<path d="M23 56.2912H31.2339C31.7869 56.2912 32.2339 55.8419 32.2339 55.2884C32.2339 54.7349 31.7869 54.2856 31.2339 54.2856H23C22.448 54.2856 22 54.7349 22 55.2884C22 55.8419 22.4479 56.2912 23 56.2912Z" fill="#3077E3"/>
<path d="M19 46.2629C18.448 46.2629 18 46.7122 18 47.2657V59.2996C18 59.8531 18.448 60.3024 19 60.3024C19.5519 60.3024 19.9999 59.8531 19.9999 59.2996V47.2657C20 46.7122 19.552 46.2629 19 46.2629Z" fill="#3077E3"/>
<path d="M46 41.2488C47.1029 41.2488 48 42.1483 48 43.2545C48 43.808 48.448 44.2573 49 44.2573C49.5519 44.2573 49.9999 43.808 49.9999 43.2545C49.9999 41.3913 48.7199 39.8339 46.9999 39.3856V39.2431C46.9999 38.6896 46.5519 38.2404 46 38.2404C45.448 38.2404 45 38.6896 45 39.2431V39.3856C43.28 39.8338 42 41.3913 42 43.2545C42 45.4668 43.794 47.2658 46 47.2658C47.1029 47.2658 48 48.1652 48 49.2714C48 50.3776 47.103 51.2771 46 51.2771C44.897 51.2771 43.9999 50.3776 43.9999 49.2714C43.9999 48.7179 43.5519 48.2687 43 48.2687C42.448 48.2687 42 48.7179 42 49.2714C42 51.1347 43.28 52.6921 45 53.1404V53.2828C45 53.8363 45.448 54.2856 46 54.2856C46.5519 54.2856 46.9999 53.8363 46.9999 53.2828V53.1404C48.7199 52.6922 49.9999 51.1347 49.9999 49.2714C49.9999 47.0592 48.2059 45.2602 46 45.2602C44.897 45.2602 43.9999 44.3607 43.9999 43.2545C43.9999 42.1483 44.897 41.2488 46 41.2488Z" fill="#3077E3"/>
<path d="M46 32.2234C38.2801 32.2234 32 38.5211 32 46.263C32 54.0048 38.2801 60.3024 46 60.3024C53.72 60.3024 60.0001 54.0047 60.0001 46.2628C60.0001 38.521 53.7201 32.2234 46 32.2234ZM46 58.2967C39.383 58.2967 34 52.8985 34 46.2628C34 39.6272 39.383 34.229 46 34.229C52.617 34.229 58.0001 39.6272 58.0001 46.2628C58.0001 52.8985 52.617 58.2967 46 58.2967Z" fill="#3077E3"/>
<path d="M15 46.2629H0.999961C0.448008 46.2629 0 46.7122 0 47.2657C0 47.8192 0.448008 48.2685 0.999961 48.2685H15C15.552 48.2685 16 47.8192 16 47.2657C16 46.7122 15.552 46.2629 15 46.2629Z" fill="#3077E3"/>
<path d="M30 33.2263C31.302 33.2263 32.4011 32.3859 32.816 31.2206H34C34.5519 31.2206 34.9999 30.7713 34.9999 30.2178C34.9999 29.6643 34.5519 29.2151 34 29.2151H32.816C32.514 28.3656 31.847 27.6968 31 27.3939V9.15855C31 8.60503 30.552 8.15576 30 8.15576C29.448 8.15576 29 8.60503 29 9.15855V27.3939C28.153 27.6967 27.4861 28.3656 27.184 29.2151H16C15.448 29.2151 15 29.6643 15 30.2178C15 30.7713 15.448 31.2206 16 31.2206H27.1849C27.5989 32.3859 28.698 33.2263 30 33.2263ZM30 29.2151C30.551 29.2151 31 29.6653 31 30.2178C31 30.7704 30.551 31.2206 30 31.2206C29.449 31.2206 29 30.7704 29 30.2178C29 29.6653 29.449 29.2151 30 29.2151Z" fill="#3077E3"/>
<path d="M15 50.2743H0.999961C0.448008 50.2743 0 50.7236 0 51.2771C0 51.8306 0.448008 52.2799 0.999961 52.2799H15C15.552 52.2799 16 51.8306 16 51.2771C16 50.7236 15.552 50.2743 15 50.2743Z" fill="#3077E3"/>
<path d="M23 52.2799H29.5C30.0519 52.2799 30.5 51.8306 30.5 51.2771C30.5 50.7236 30.0519 50.2743 29.5 50.2743H23C22.448 50.2743 22 50.7236 22 51.2771C22 51.8306 22.4479 52.2799 23 52.2799Z" fill="#3077E3"/>
<path d="M23 48.2686H29C29.5519 48.2686 29.9999 47.8194 29.9999 47.2658C29.9999 46.7123 29.5519 46.2631 29 46.2631H23C22.448 46.2631 22 46.7123 22 47.2658C22 47.8194 22.4479 48.2686 23 48.2686Z" fill="#3077E3"/>
</g>
<defs>
<clipPath id="clip0">
<rect y="0.133057" width="60" height="60.1694" fill="white"/>
</clipPath>
</defs>
</svg>
