<svg width="60" height="61" viewBox="0 0 60 61" fill="none" xmlns="http://www.w3.org/2000/svg">
<g clip-path="url(#clip0)">
<path d="M48 38.2424C49.1029 38.2424 50 39.1419 50 40.2481C50 40.8016 50.4469 41.2508 51 41.2508C51.553 41.2508 51.9999 40.8016 51.9999 40.2481C51.9999 38.3848 50.7209 36.8274 48.9999 36.3791V36.2367C48.9999 35.6832 48.553 35.2339 48 35.2339C47.447 35.2339 47 35.6832 47 36.2367V36.3791C45.279 36.8273 44 38.3848 44 40.2481C44 42.4603 45.794 44.2593 48 44.2593C49.1029 44.2593 50 45.1588 50 46.265C50 47.3711 49.103 48.2707 48 48.2707C46.897 48.2707 45.9999 47.3712 45.9999 46.265C45.9999 45.7115 45.553 45.2622 45 45.2622C44.447 45.2622 44 45.7115 44 46.265C44 48.1283 45.279 49.6856 47 50.134V50.2764C47 50.8299 47.447 51.2792 48 51.2792C48.553 51.2792 48.9999 50.8299 48.9999 50.2764V50.134C50.7209 49.6857 51.9999 48.1283 51.9999 46.265C51.9999 44.0527 50.2059 42.2537 48 42.2537C46.897 42.2537 45.9999 41.3543 45.9999 40.2481C45.9999 39.1419 46.897 38.2424 48 38.2424Z" fill="#3077E3"/>
<path d="M46.9999 22.1971C47.5529 22.1971 47.9999 21.7478 47.9999 21.1943C47.9999 20.6408 47.5529 20.1915 46.9999 20.1915H41C40.447 20.1915 40 20.6408 40 21.1943C40 21.7478 40.447 22.1971 41 22.1971H46.9999Z" fill="#3077E3"/>
<path d="M39.9999 43.2563C39.9999 42.7028 39.553 42.2535 39 42.2535H30C29.448 42.2535 29 42.7028 29 43.2563C29 43.8098 29.448 44.2591 30 44.2591H39C39.553 44.2592 39.9999 43.8099 39.9999 43.2563Z" fill="#3077E3"/>
<path d="M25 22.1971H37C37.553 22.1971 37.9999 21.7478 37.9999 21.1943C37.9999 20.6408 37.553 20.1915 37 20.1915H25C24.448 20.1915 24 20.6408 24 21.1943C24 21.7478 24.448 22.1971 25 22.1971Z" fill="#3077E3"/>
<path d="M55 8.15763H20C19.4481 8.15763 19.0001 8.60691 19.0001 9.16042C19.0001 9.71393 19.4481 10.1632 20 10.1632H55.0001C56.6541 10.1632 58.0001 11.513 58.0001 13.1717V58.2987H18V13.1717C18 10.4069 15.757 8.15752 13 8.15752C10.243 8.15752 7.99992 10.4068 7.99992 13.1717V47.2676C7.99992 48.9263 6.65391 50.2761 4.99992 50.2761C3.34594 50.2761 1.99992 48.9263 1.99992 47.2676V2.14058H42V5.14905C42 5.70256 42.447 6.15183 43 6.15183C43.553 6.15183 43.9999 5.70256 43.9999 5.14905V1.13779C43.9999 0.584282 43.553 0.13501 43 0.13501H0.999961C0.448008 0.13501 0 0.584282 0 1.13779V47.2676C0 50.0324 2.24297 52.2818 5.00004 52.2818C7.75699 52.2818 10.0001 50.0325 10.0001 47.2676V13.1717C10.0001 11.513 11.3461 10.1632 13.0001 10.1632C14.6541 10.1632 16.0001 11.513 16.0001 13.1717V50.2761H11C10.4481 50.2761 10.0001 50.7254 10.0001 51.2789C10.0001 51.8324 10.4481 52.2817 11 52.2817H16.0001V59.3014C16.0001 59.8549 16.4481 60.3042 17 60.3042H59C59.553 60.3042 60 59.8549 60 59.3014V13.1717C60 10.4069 57.757 8.15763 55 8.15763Z" fill="#3077E3"/>
<path d="M25 28.2141H51C51.553 28.2141 52 27.7648 52 27.2113C52 26.6578 51.553 26.2085 51 26.2085H25C24.448 26.2085 24 26.6578 24 27.2113C24 27.7648 24.448 28.2141 25 28.2141Z" fill="#3077E3"/>
<path d="M30 48.2705C29.448 48.2705 29 48.7198 29 49.2733C29 49.8268 29.448 50.2761 30 50.2761H38C38.553 50.2761 39 49.8268 39 49.2733C39 48.7198 38.553 48.2705 38 48.2705H30Z" fill="#3077E3"/>
<path d="M25 50.2762H25.9999C26.5519 50.2762 26.9999 49.8269 26.9999 49.2734C26.9999 48.7199 26.5519 48.2706 25.9999 48.2706H25C24.448 48.2706 24 48.7199 24 49.2734C24 49.8269 24.448 50.2762 25 50.2762Z" fill="#3077E3"/>
<path d="M25 44.2592H25.9999C26.5519 44.2592 26.9999 43.8099 26.9999 43.2564C26.9999 42.7029 26.5519 42.2537 25.9999 42.2537H25C24.448 42.2537 24 42.7029 24 43.2564C24 43.8099 24.448 44.2592 25 44.2592Z" fill="#3077E3"/>
<path d="M30 38.2423H36.9999C37.5529 38.2423 37.9999 37.793 37.9999 37.2395C37.9999 36.686 37.5529 36.2367 36.9999 36.2367H30C29.448 36.2367 29 36.686 29 37.2395C29 37.793 29.448 38.2423 30 38.2423Z" fill="#3077E3"/>
<path d="M25 38.2423H25.9999C26.5519 38.2423 26.9999 37.793 26.9999 37.2395C26.9999 36.686 26.5519 36.2367 25.9999 36.2367H25C24.448 36.2367 24 36.686 24 37.2395C24 37.793 24.448 38.2423 25 38.2423Z" fill="#3077E3"/>
</g>
<defs>
<clipPath id="clip0">
<rect y="0.13501" width="60" height="60.1694" fill="white"/>
</clipPath>
</defs>
</svg>
