<svg width="60" height="61" viewBox="0 0 60 61" fill="none" xmlns="http://www.w3.org/2000/svg">
<g clip-path="url(#clip0)">
<path d="M16.9999 58.3137H5.00001C3.34604 58.3137 2.00003 56.9638 2.00003 55.3052V5.1644C2.00003 3.50575 3.34604 2.15595 5.00001 2.15595H16.9999C17.5529 2.15595 17.9999 1.70668 17.9999 1.15317C17.9999 0.599661 17.5529 0.150391 16.9999 0.150391H5.00001C2.24307 0.150391 0 2.39968 0 5.16452V55.3054C0 58.0702 2.24296 60.3196 5.00001 60.3196H16.9999C17.5529 60.3196 17.9999 59.8703 17.9999 59.3168C17.9999 58.7633 17.5529 58.3137 16.9999 58.3137Z" fill="#3077E3"/>
<path d="M38 53.2995C38 53.853 38.4469 54.3022 39 54.3022H52.9999C53.5529 54.3022 53.9999 53.853 53.9999 53.2995V7.16977C53.9999 6.61626 53.5529 6.16699 52.9999 6.16699H39.0001C38.4471 6.16699 38.0001 6.61626 38.0001 7.16977C38.0001 7.72328 38.4471 8.17255 39.0001 8.17255H52V52.2966H39.0001C38.4471 52.2966 38 52.7458 38 53.2995Z" fill="#3077E3"/>
<path d="M40 48.2853H46.9999C47.5529 48.2853 47.9998 47.8361 47.9998 47.2826C47.9998 46.7291 47.5529 46.2798 46.9999 46.2798H40C39.4469 46.2798 39 46.7291 39 47.2826C39 47.8361 39.4469 48.2853 40 48.2853Z" fill="#3077E3"/>
<path d="M40 36.2517H46.9999C47.5529 36.2517 47.9998 35.8024 47.9998 35.2489C47.9998 34.6954 47.5529 34.2461 46.9999 34.2461H40C39.4469 34.2461 39 34.6954 39 35.2489C39 35.8024 39.4469 36.2517 40 36.2517Z" fill="#3077E3"/>
<path d="M40 44.2741H46.9999C47.5529 44.2741 47.9998 43.8248 47.9998 43.2713C47.9998 42.7178 47.5529 42.2686 46.9999 42.2686H40C39.4469 42.2686 39 42.7178 39 43.2713C39 43.8248 39.4469 44.2741 40 44.2741Z" fill="#3077E3"/>
<path d="M40 40.2629H46.9999C47.5529 40.2629 47.9998 39.8136 47.9998 39.2601C47.9998 38.7066 47.5529 38.2573 46.9999 38.2573H40C39.4469 38.2573 39 38.7066 39 39.2601C39 39.8136 39.4469 40.2629 40 40.2629Z" fill="#3077E3"/>
<path d="M14 29.2318C13.447 29.2318 13 29.6811 13 30.2346C13 30.7881 13.447 31.2374 14 31.2374H14.041C14.1239 32.3434 14.342 33.3714 14.6679 34.2839L14.4129 34.5385C14.0219 34.9307 14.0219 35.5654 14.4119 35.9576C14.6069 36.1531 14.8639 36.2514 15.1199 36.2514C15.2799 36.2514 15.434 36.1992 15.5789 36.123C16.2389 37.1078 17.0679 37.8087 17.9999 38.1016V38.257C17.9999 38.8106 18.4468 39.2598 18.9998 39.2598C19.5529 39.2598 19.9998 38.8106 19.9998 38.257V38.1016C20.9388 37.8067 21.7728 37.0988 22.4358 36.102C22.5888 36.1903 22.7538 36.2514 22.9257 36.2514C23.1818 36.2514 23.4377 36.1531 23.6327 35.9585C24.0227 35.5664 24.0227 34.9316 23.6327 34.5395L23.3447 34.2497C23.6636 33.3472 23.8767 32.3293 23.9586 31.2372H23.9996C24.5526 31.2372 24.9996 30.788 24.9996 30.2345C24.9996 29.681 24.5526 29.2317 23.9996 29.2317H23.9586C23.8776 28.1466 23.6676 27.1368 23.3516 26.2383L23.6326 25.9565C24.0226 25.5643 24.0226 24.9296 23.6326 24.5374C23.3106 24.2136 22.8276 24.1734 22.4465 24.385C21.7826 23.3781 20.9446 22.6642 19.9996 22.3674V22.2119C19.9996 21.6584 19.5526 21.2091 18.9996 21.2091C18.4466 21.2091 17.9997 21.6584 17.9997 22.2119V22.3674C17.0626 22.6622 16.2286 23.3692 15.5657 24.364C15.1907 24.1735 14.7267 24.2226 14.4127 24.5374C14.0216 24.9295 14.0216 25.5643 14.4127 25.9554L14.6607 26.2041C14.3377 27.1117 14.1227 28.1335 14.0406 29.2316H14V29.2318ZM16.752 26.3377C16.754 26.3346 16.754 26.3326 16.756 26.3297C17.3469 25.006 18.199 24.2178 19 24.2178C20.419 24.2178 21.9999 26.6887 21.9999 30.2347C21.9999 33.7807 20.419 36.2516 19 36.2516C17.5809 36.2516 16 33.7807 16 30.2347C16 28.6943 16.2989 27.3586 16.752 26.3377Z" fill="#3077E3"/>
<path d="M31.9999 55.3052V5.16428C31.9999 4.61077 31.553 4.1615 31 4.1615C30.4469 4.1615 30 4.61077 30 5.16428V55.3052C30 55.8587 30.4469 56.308 31 56.308C31.553 56.308 31.9999 55.8587 31.9999 55.3052Z" fill="#3077E3"/>
<path d="M54.9998 0.150146H39C38.4469 0.150146 38 0.599417 38 1.15292C38 1.70643 38.4469 2.1557 39 2.1557H54.9998C56.6538 2.1557 57.9998 3.50551 57.9998 5.16416V55.3051C57.9998 56.9637 56.6538 58.3135 54.9998 58.3135H39C38.4469 58.3135 38 58.7628 38 59.3163C38 59.8698 38.4469 60.3191 39 60.3191H54.9998C57.7568 60.3191 59.9999 58.0698 59.9999 55.305V5.16427C59.9999 2.39943 57.7568 0.150146 54.9998 0.150146Z" fill="#3077E3"/>
<path d="M19 32.2404C19.553 32.2404 19.9999 31.7911 19.9999 31.2376V29.2319C19.9999 28.6784 19.553 28.2291 19 28.2291C18.4469 28.2291 18 28.6784 18 29.2319V31.2376C18 31.7911 18.4469 32.2404 19 32.2404Z" fill="#3077E3"/>
<path d="M35.4468 2.26111L31.4468 0.255435C31.2328 0.149081 30.9888 0.121112 30.7577 0.180223L6.75787 6.19713C6.31186 6.30842 5.99991 6.70962 5.99991 7.16982V12.1839H4.99996C4.44695 12.1839 4 12.6332 4 13.1867V21.2093C4 21.7628 4.44695 22.2121 4.99996 22.2121H8.99989C9.5529 22.2121 9.99985 21.7628 9.99985 21.2093V13.1867C9.99985 12.6332 9.5529 12.1839 8.99989 12.1839H7.99994V7.95308L30.8838 2.21598L33.9998 3.77838V56.6911L30.8838 58.2535L7.99994 52.5163V51.2938C7.99994 50.7403 7.55299 50.2911 6.99998 50.2911C6.44698 50.2911 6.00003 50.7403 6.00003 51.2938V53.2995C6.00003 53.3265 6.01397 53.3486 6.01608 53.3758C6.02112 53.445 6.03612 53.5092 6.05604 53.5753C6.07304 53.6355 6.09003 53.6937 6.11909 53.7488C6.14803 53.8069 6.18612 53.8561 6.22514 53.9072C6.2651 53.9583 6.30319 54.0054 6.35112 54.0476C6.39811 54.0888 6.45014 54.1198 6.50616 54.1519C6.56416 54.187 6.62112 54.2171 6.68709 54.2391C6.71311 54.2471 6.7301 54.2661 6.75811 54.2722L30.758 60.2891C30.838 60.3092 30.919 60.3192 31 60.3192C31.1539 60.3192 31.3079 60.2831 31.4469 60.2139L35.4468 58.2082C35.7859 58.0377 35.9998 57.6908 35.9998 57.3107V3.15859C35.9998 2.77854 35.7858 2.43151 35.4468 2.26111ZM7.99994 20.2065H6.00003V14.1896H8.00005V20.2065H7.99994Z" fill="#3077E3"/>
<path d="M6.99987 24.2178C6.44686 24.2178 5.99991 24.667 5.99991 25.2206V38.2573H4.99995C4.44695 38.2573 4 38.7065 4 39.26V47.2826C4 47.8361 4.44695 48.2854 4.99995 48.2854H8.99989C9.5529 48.2854 9.99985 47.8361 9.99985 47.2826V39.26C9.99985 38.7065 9.5529 38.2573 8.99989 38.2573H7.99994V25.2207C7.99982 24.667 7.55287 24.2178 6.99987 24.2178ZM7.99982 46.2797H5.99991V40.2628H7.99994V46.2797H7.99982Z" fill="#3077E3"/>
</g>
<defs>
<clipPath id="clip0">
<rect y="0.14978" width="60" height="60.1694" fill="white"/>
</clipPath>
</defs>
</svg>
