<svg width="25" height="25" viewBox="0 0 25 25" fill="none" xmlns="http://www.w3.org/2000/svg">
<path d="M12.5004 0C7.4258 0 3.29688 4.12893 3.29688 9.204C3.29688 10.5278 3.56782 11.7917 4.10178 12.9609C6.40291 17.9963 10.8148 23.3127 12.1125 24.8219C12.2097 24.9348 12.3515 24.9997 12.5006 24.9997C12.6498 24.9997 12.7915 24.9348 12.8887 24.8219C14.1859 23.3129 18.5978 17.9968 20.8997 12.9609C21.4339 11.7917 21.7046 10.5278 21.7046 9.204C21.7041 4.12893 17.5752 0 12.5004 0ZM12.5004 13.9846C9.86432 13.9846 7.71952 11.8398 7.71952 9.20374C7.71952 6.56745 9.86432 4.42265 12.5004 4.42265C15.1364 4.42265 17.2812 6.56745 17.2812 9.20374C17.2815 11.8398 15.1367 13.9846 12.5004 13.9846Z" fill="#3077E3"/>
</svg>
