<svg width="25" height="25" viewBox="0 0 25 25" fill="none" xmlns="http://www.w3.org/2000/svg">
<g clip-path="url(#clip0)">
<path d="M24.3187 18.3475L20.8299 14.8587C19.5839 13.6126 17.4657 14.1111 16.9673 15.7309C16.5935 16.8523 15.3474 17.4753 14.226 17.2261C11.734 16.6031 8.3698 13.3634 7.74679 10.7468C7.37299 9.62537 8.12059 8.37936 9.242 8.00561C10.8618 7.5072 11.3602 5.38899 10.1142 4.14298L6.62538 0.654155C5.62858 -0.218052 4.13337 -0.218052 3.26116 0.654155L0.893743 3.02157C-1.47367 5.51359 1.14294 12.1174 6.99919 17.9737C12.8554 23.8299 19.4593 26.5712 21.9513 24.0791L24.3187 21.7117C25.191 20.7149 25.191 19.2197 24.3187 18.3475Z" fill="#3077E3"/>
</g>
<defs>
<clipPath id="clip0">
<rect width="25" height="25" fill="white"/>
</clipPath>
</defs>
</svg>
