<svg width="25" height="25" viewBox="0 0 25 25" fill="none" xmlns="http://www.w3.org/2000/svg">
<path d="M12.5 0C5.59643 0 0 5.59643 0 12.5C0 19.4035 5.59643 24.9999 12.5 24.9999C19.4035 24.9999 24.9999 19.4035 24.9999 12.5C24.9926 5.59952 19.4005 0.00737653 12.5 0ZM13.3928 12.5C13.3928 12.9931 12.9931 13.3928 12.5 13.3928H5.35714C4.86401 13.3928 4.46427 12.9931 4.46427 12.5C4.46427 12.0068 4.86401 11.6071 5.35714 11.6071H11.6072V5.35714C11.6072 4.86401 12.0069 4.46427 12.5 4.46427C12.9932 4.46427 13.3928 4.86401 13.3928 5.35714V12.5Z" fill="#3077E3"/>
</svg>
